HIERARCHY
ROOT Hips
{
	OFFSET -246.947098 92.295853 298.950195
	CHANNELS 6 Xposition Yposition Zposition Zrotation Yrotation Xrotation 
	JOINT LeftUpLeg
	{
		OFFSET 0.103455 1.857832 10.548509
		CHANNELS 3 Zrotation Yrotation Xrotation
		JOINT LeftLeg
		{
			OFFSET 43.500000 -0.000038 0.000000
			CHANNELS 3 Zrotation Yrotation Xrotation
			JOINT LeftFoot
			{
				OFFSET 42.372196 0.000027 -0.000005
				CHANNELS 3 Zrotation Yrotation Xrotation
				JOINT LeftToe
				{
					OFFSET 17.300005 0.000000 0.000006
					CHANNELS 3 Zrotation Yrotation Xrotation
					End Site
					{
						OFFSET 0.000000 0.000000 0.000000
					}
				}
			}
		}
	}
	JOINT RightUpLeg
	{
		OFFSET 0.103456 1.857826 -10.548491
		CHANNELS 3 Zrotation Yrotation Xrotation
		JOINT RightLeg
		{
			OFFSET 43.500046 0.000000 0.000031
			CHANNELS 3 Zrotation Yrotation Xrotation
			JOINT RightFoot
			{
				OFFSET 42.372269 -0.000023 0.000007
				CHANNELS 3 Zrotation Yrotation Xrotation
				JOINT RightToe
				{
					OFFSET 17.299986 -0.000008 -0.000004
					CHANNELS 3 Zrotation Yrotation Xrotation
					End Site
					{
						OFFSET 0.000000 0.000000 0.000000
					}
				}
			}
		}
	}
	JOINT Spine
	{
		OFFSET 6.901961 -2.603715 -0.000002
		CHANNELS 3 Zrotation Yrotation Xrotation
		JOINT Spine1
		{
			OFFSET 12.588100 -0.000008 0.000001
			CHANNELS 3 Zrotation Yrotation Xrotation
			JOINT Spine2
			{
				OFFSET 12.343203 -0.000016 0.000001
				CHANNELS 3 Zrotation Yrotation Xrotation
				JOINT Neck
				{
					OFFSET 25.832899 0.000013 -0.000005
					CHANNELS 3 Zrotation Yrotation Xrotation
					JOINT Head
					{
						OFFSET 11.766600 0.000004 0.000007
						CHANNELS 3 Zrotation Yrotation Xrotation
						End Site
						{
							OFFSET 0.000000 0.000000 0.000000
						}
					}
				}
				JOINT LeftShoulder
				{
					OFFSET 19.745905 -1.480350 6.000103
					CHANNELS 3 Zrotation Yrotation Xrotation
					JOINT LeftArm
					{
						OFFSET 11.284127 0.000012 -0.000026
						CHANNELS 3 Zrotation Yrotation Xrotation
						JOINT LeftForeArm
						{
							OFFSET 33.000061 -0.000016 0.000035
							CHANNELS 3 Zrotation Yrotation Xrotation
							JOINT LeftHand
							{
								OFFSET 25.199999 0.000022 0.000000
								CHANNELS 3 Zrotation Yrotation Xrotation
								End Site
								{
									OFFSET 0.000000 0.000000 0.000000
								}
							}
						}
					}
				}
				JOINT RightShoulder
				{
					OFFSET 19.746105 -1.480368 -6.000077
					CHANNELS 3 Zrotation Yrotation Xrotation
					JOINT RightArm
					{
						OFFSET 11.284150 -0.000028 -0.000009
						CHANNELS 3 Zrotation Yrotation Xrotation
						JOINT RightForeArm
						{
							OFFSET 33.000080 0.000039 0.000015
							CHANNELS 3 Zrotation Yrotation Xrotation
							JOINT RightHand
							{
								OFFSET 25.199778 0.000128 0.000429
								CHANNELS 3 Zrotation Yrotation Xrotation
								End Site
								{
									OFFSET 0.000000 0.000000 0.000000
								}
							}
						}
					}
				}
			}
		}
	}
}
MOTION
Frames: 7
Frame Time: 0.033333
196.091003 70.738373 500.959991 104.013003 10.180309 -126.488301 -156.852658 -2.377594 178.324792 -98.183628 3.270089 3.540251 87.495789 -0.860420 8.636626 21.454550 0.003093 0.000000 146.915306 9.497608 170.453668 -48.694587 -1.518228 -6.228096 93.291136 8.758171 32.842510 21.454555 -0.003108 -0.000016 8.951032 1.580960 -2.370402 7.825390 3.318226 -4.630423 7.507840 3.290365 -4.650337 11.909059 14.612285 20.266930 -28.388177 -22.559997 33.073658 -155.450324 -82.408596 -26.421748 16.926484 60.596400 38.311095 -101.614698 -1.459887 2.923278 -7.849806 -5.558870 25.535916 -176.974696 74.179317 4.502015 30.721255 -43.470240 -34.176422 -82.502313 10.549098 -2.752488 -4.435163 0.604818 -46.188645 
202.946304 69.666039 494.119690 106.563799 9.266780 -126.991399 -167.443249 -4.143096 173.062623 -122.958896 4.506832 4.221328 92.706602 -1.074067 12.817151 21.454555 0.003090 0.000000 152.240272 9.415693 176.800075 -55.711391 -3.326638 -10.243691 101.546417 8.988446 31.205645 21.454558 -0.003107 -0.000019 10.287232 1.951038 -0.444110 10.555637 3.934308 -0.708609 10.236747 3.930086 -0.732377 6.480983 12.994175 16.830990 -29.397619 -20.583166 29.226000 -157.175808 -79.587789 -24.727807 15.021275 64.333634 36.600313 -90.506577 -3.976149 2.605658 -7.777923 -9.371536 28.691098 170.698681 73.056516 -8.164701 11.840581 -40.408390 -30.370013 -76.567063 16.593174 -2.919366 -6.436090 3.011761 -42.943168 
208.108597 70.094078 487.084503 104.032401 9.031884 -125.775598 171.439934 -2.765504 169.209003 -138.891910 4.400970 3.613372 94.654578 -0.928702 12.563461 21.454558 0.003093 0.000002 158.251863 12.353701 176.379322 -55.173903 -2.457465 -10.399584 107.393202 7.392491 31.849080 21.454560 -0.003110 -0.000018 10.449258 1.320114 0.921936 10.910255 2.547254 1.964782 10.592032 2.559214 1.949376 3.130474 12.605993 12.978617 -29.211507 -19.191795 24.783784 -157.845685 -80.016725 -24.039407 19.885129 61.591661 42.901374 -88.519750 -4.827123 2.577182 -5.322170 -11.618673 26.517296 158.609779 72.975817 -20.550825 1.858127 -38.328044 -23.345004 -78.446034 17.271745 -3.050710 -7.817712 1.009007 -49.952797 
212.627808 71.607567 479.246399 101.676908 8.378195 -123.126891 146.501629 -1.311205 165.869286 -140.814404 4.062348 3.695485 90.958210 -0.934167 10.640638 21.454555 0.003093 0.000003 168.116036 15.116587 177.552325 -48.951997 -1.748428 -8.932471 108.008199 6.241773 32.409316 21.454558 -0.003111 -0.000018 10.544464 0.620859 1.933315 11.094625 1.053286 3.917353 10.777272 1.077038 3.910945 0.381595 11.171124 9.624622 -28.903288 -16.326370 19.871285 -149.252010 -82.039547 -32.703728 25.291303 54.232146 50.426375 -94.378905 -2.570618 2.679446 -6.695812 -10.223066 21.934338 157.576603 75.547582 -21.473300 -5.025103 -39.598073 -9.161188 -86.433974 11.141358 -2.969002 -10.954847 6.333231 -44.485507 
217.053299 73.907097 469.595795 99.460702 8.501649 -119.045498 127.176948 0.996094 166.231723 -129.200610 3.560772 4.358358 86.464000 -1.282787 9.252360 21.454550 0.003091 0.000006 -178.611742 16.704501 179.858921 -36.669452 -0.858455 -6.423047 100.261392 6.847107 32.771060 21.454558 -0.003103 -0.000017 10.240483 0.007262 2.513535 10.463513 -0.212958 5.017318 10.146733 -0.182559 5.018516 -1.787805 9.590685 6.610520 -27.147393 -13.746226 15.098649 -139.555777 -84.863741 -42.385883 28.782666 47.279191 57.172361 -99.069018 -1.669673 2.825068 -7.751683 -10.453272 21.534309 158.638001 77.166016 -20.309986 -7.489994 -41.812840 4.062870 -94.580450 4.106774 -2.838908 -13.149687 11.891075 -40.218913 
221.748306 76.346550 458.273804 98.477811 9.704152 -113.939693 118.514328 3.284197 167.830329 -109.458194 2.519844 0.152974 85.851407 1.528494 8.588190 21.454557 0.003092 -0.000002 -165.350164 14.915098 179.953737 -22.945259 1.273779 -0.670549 80.345407 7.329830 27.688098 21.454560 -0.003108 -0.000015 9.703217 -0.285492 2.715977 9.375200 -0.790101 5.399892 9.058626 -0.757391 5.404553 -3.979978 7.927870 3.962722 -23.513833 -10.563665 10.250717 -123.418390 -87.974838 -58.426155 31.142473 43.520623 61.928267 -100.516691 -1.276222 2.861852 -8.061303 -10.146502 20.917070 160.056372 77.278304 -18.861520 -6.765059 -41.636458 6.744457 -99.945038 1.893372 -2.924349 -14.153139 14.730008 -38.828461 
226.725601 78.402946 445.983887 99.725755 11.685498 -108.899696 117.161022 3.896398 171.426765 -85.806164 0.198894 -2.632861 88.444707 3.551594 10.170092 21.454551 0.003089 -0.000002 -156.943786 10.183399 -176.342630 -16.083788 1.246826 4.048180 61.402472 10.477188 31.406992 21.454557 -0.003111 -0.000017 9.137163 -0.138851 2.786755 8.250050 -0.475869 5.556496 7.933576 -0.442214 5.559254 -6.338232 6.687290 1.922049 -19.297446 -8.368285 6.695840 170.190815 -89.421554 8.109233 30.941194 41.861369 62.787928 -100.265504 -1.139777 2.841192 -6.545510 -8.543041 18.595950 162.826068 77.342637 -16.040332 -5.520465 -39.762735 2.702103 -99.974626 1.806752 -2.919628 -13.535972 16.657894 -35.773187 
